<svg width="220" height="50" xmlns="http://www.w3.org/2000/svg">
 <g>
  <title>Layer 1</title>
  <g id="svg_1">
   <g id="svg_2">
    <path fill="#61C6C2" d="m5.375,5.775l4.2,0l0,25.1l-4.2,0l0,-25.1z" id="svg_3"/>
    <path fill="#61C6C2" d="m35.375,5.775l4.200001,0l0,25.1l-4.600002,0l-14.199999,-18.3l0,18.3l-4.200001,0l0,-25.1l4.200001,0l14.6,18.7l0,-18.7z" id="svg_4"/>
    <path fill="#61C6C2" d="m54.075001,9.075c-1.200001,0 -2.200001,0.3 -3,0.8c-0.799999,0.5 -1.200001,1.3 -1.200001,2.3c0,1 0.400002,1.8 1.200001,2.3s2.5,1.099999 5,1.699999c2.599998,0.6 4.5,1.5 5.799999,2.6c1.299999,1.1 2,2.800001 2,5c0,2.200001 -0.799999,4 -2.5,5.300001c-1.700001,1.4 -3.799999,2 -6.5,2c-3.900002,0 -7.400002,-1.400002 -10.400002,-4.1l2.700001,-3.200001c2.5,2.200001 5.200001,3.300001 7.900002,3.300001c1.399998,0 2.399998,-0.300001 3.200001,-0.900002c0.799999,-0.599998 1.199997,-1.4 1.199997,-2.299999c0,-1 -0.399998,-1.700001 -1.099998,-2.299999c-0.799999,-0.5 -2.099998,-1 -3.900002,-1.5c-1.799999,-0.400002 -3.199997,-0.800001 -4.199997,-1.200001c-1,-0.4 -1.800003,-0.9 -2.5,-1.5c-1.5,-1.1 -2.200001,-2.8 -2.200001,-5.2c0,-2.3 0.799999,-4.1 2.5,-5.4c1.700001,-1.3 3.799999,-1.9 6.299999,-1.9c1.599998,0 3.200001,0.3 4.799999,0.8c1.600002,0.5 2.89999,1.3 4.100002,2.2l-2.400002,3.5c-0.700001,-0.7 -1.700001,-1.2 -3,-1.7c-1.299999,-0.400001 -2.5,-0.6 -3.799999,-0.6z" id="svg_5"/>
    <path fill="#61C6C2" d="m86.074997,7.975c1.700005,1.5 2.600014,3.7 2.600014,6.7c0,2.999999 -0.900002,5.3 -2.699997,6.7c-1.800003,1.4 -4.5,2.1 -8.200005,2.1l-4.400002,0l0,7.4l-4.199997,0l0,-25.1l8.599998,0c3.800003,0 6.5,0.7 8.300003,2.2l-0.000023,0l0.000008,0zm-3,10.3c0.800003,-0.9 1.300003,-2.199999 1.300003,-3.9c0,-1.7 -0.5,-3 -1.599998,-3.7s-2.800003,-1.1 -5.099998,-1.1l-4.300003,0l0,10.000001l4.900002,0c2.299995,0.099998 3.900002,-0.400002 4.799995,-1.300001z" id="svg_6"/>
    <path fill="#61C6C2" d="m111.275002,5.775l0,4l-13.400002,0l0,6.6l12,0l0,3.799999l-12,0l0,6.700001l13.800003,0l0,4l-18,0l0,-25.1l17.599998,0z" id="svg_7"/>
    <path fill="#61C6C2" d="m153.475006,9.575l0,21.2l-4.199997,0l0,-21.2l-7.600006,0l0,-3.9l19.400009,0l0,3.9l-7.600006,0z" id="svg_8"/>
    <path fill="#61C6C2" d="m185.975006,27.375c-2.5,2.5 -5.699997,3.700001 -9.399979,3.700001c-3.700012,0 -6.900024,-1.200001 -9.400024,-3.700001c-2.5,-2.5 -3.799988,-5.6 -3.799988,-9.299999s1.299988,-6.800001 3.799988,-9.300001c2.5,-2.5 5.700012,-3.7 9.400024,-3.7c3.699997,0 6.899979,1.2 9.399979,3.7s3.800003,5.6 3.800003,9.300001s-1.300003,6.799999 -3.800003,9.299999zm-3.100006,-15.7c-1.699997,-1.8 -3.800003,-2.7 -6.300003,-2.7c-2.5,0 -4.599991,0.9 -6.300003,2.7c-1.699997,1.8 -2.599991,3.9 -2.599991,6.400001c0,2.5 0.899994,4.699999 2.599991,6.4c1.700012,1.799999 3.800003,2.699999 6.300003,2.699999c2.5,0 4.600006,-0.9 6.300003,-2.699999c1.699997,-1.800001 2.600006,-3.9 2.600006,-6.4c-0.100006,-2.500001 -0.900009,-4.6 -2.600006,-6.400001z" id="svg_9"/>
    <path fill="#61C6C2" d="m215.074997,13.875c0,4.1 -1.800003,6.700001 -5.399994,7.799999l6.599991,9.1l-5.399979,0l-6,-8.4l-5.600021,0l0,8.4l-4.199997,0l0,-25l9.300003,0c3.800003,0 6.600006,0.6 8.199997,1.9c1.699997,1.3 2.5,3.4 2.5,6.2zm-5.599991,3.6c0.900009,-0.700001 1.300003,-1.900001 1.300003,-3.6c0,-1.6 -0.399994,-2.8 -1.300003,-3.4s-2.5,-0.900001 -4.699997,-0.900001l-5.399994,0l0,9.000001l5.299988,0c2.300003,0 3.899994,-0.400002 4.800003,-1.1z" id="svg_10"/>
   </g>
   <g id="svg_11">
    <g id="svg_12">
     <path fill="#414042" d="m127.774986,6.675l0,0c0.599983,0 1.099983,0 1.700005,0.1c3.100006,0.5 5.800003,2.1 7.600006,4.5c1.799988,2.5 2.599991,5.5 2.199997,8.6c-0.799988,5.6 -5.699997,9.9 -11.399986,9.9c-0.599991,0 -1.099991,0 -1.699997,-0.1c-3.099991,-0.5 -5.800003,-2.099998 -7.600014,-4.5c-1.799995,-2.5 -2.599998,-5.5 -2.199997,-8.599998c0.800011,-5.6 5.699997,-9.900001 11.399986,-9.900001m0,-2c-6.600006,0 -12.399986,4.8 -13.399986,11.599999c-1.100014,7.4 4,14.300001 11.399986,15.4c0.700005,0.1 1.300003,0.1 2,0.1c6.599998,0 12.399986,-4.799999 13.399986,-11.6c1.100021,-7.4 -4,-14.299999 -11.399979,-15.399999c-0.699997,0 -1.299988,-0.1 -2.000008,-0.1l0,0z" id="svg_13"/>
    </g>
    <g id="svg_14">
     <g id="svg_15">
      <path fill="#61C6C2" d="m127.774986,8.975l0,0c0.500008,0 0.900002,0 1.400002,0.099999c2.499985,0.400001 4.600006,1.7 6.100006,3.7c1.5,2 2.099991,4.5 1.699997,6.9c-0.699997,4.5 -4.600006,7.900002 -9.200005,7.900002c-0.5,0 -0.900009,0 -1.400009,-0.1c-5.099991,-0.800001 -8.599998,-5.5 -7.799995,-10.6c0.699997,-4.5 4.600006,-7.9 9.199997,-7.9m0,-0.8c-4.900009,0 -9.299995,3.599999 -10.000008,8.7c-0.800003,5.5 3,10.700001 8.599998,11.5c0.5,0.1 1,0.1 1.5,0.1c4.900009,0 9.300003,-3.6 10,-8.700001c0.800003,-5.5 -3,-10.7 -8.599991,-11.5c-0.5,-0.099999 -1,-0.099999 -1.5,-0.099999l0,0z" id="svg_16"/>
     </g>
    </g>
    <g id="svg_17">
     <path fill="#414042" d="m134.975006,31.575001l2.199997,-1.6l-1.099976,-1.5c-0.400024,-0.5 -1.200012,-0.700001 -1.700012,-0.300001l-0.200012,0.200001c-0.5,0.4 -0.699997,1.200001 -0.299988,1.700001l1.099991,1.5z" id="svg_18"/>
    </g>
    <g id="svg_19">
     <path fill="#414042" d="m145.375,38.875l-5.600006,-7.6c-0.299988,-0.4 -0.599991,-0.6 -1,-0.799999l-3.799988,2.9c0.099991,0.400002 0.199997,0.799999 0.5,1.200001l5.599991,7.599998l4.299988,-3.299999l0.000015,0z" id="svg_20"/>
     <path fill="#414042" d="m141.875,43.075001c0.899994,0.700001 2.199997,0.700001 3.199997,0l0,0c1,-0.700001 1.300003,-2 0.900009,-3.100002l-4.100006,3.100002z" id="svg_21"/>
    </g>
   </g>
  </g>
 </g>
</svg>
